{"title":"Final.Destination.5.2011.PL.BRRip.XviD-RLF","uid":6904099,"size":749695588,"categoryP":"video","categoryS":"movies","magnet":"?xt=urn:btih:0338f9f1d635cd1999bdd3add7d3966cb0116001&amp;dn=Final.Destination.5.2011.PL.BRRip.XviD-RLF&amp;tr=udp%3A%2F%2Ftracker.openbittorrent.com%3A80&amp;tr=udp%3A%2F%2Fopen.demonii.com%3A1337&amp;tr=udp%3A%2F%2Ftracker.coppersurfer.tk%3A6969&amp;tr=udp%3A%2F%2Fexodus.desync.com%3A6969","seeders":0,"leechers":1,"uploader":"rlf-rls","files":-1,"time":1324509984,"description":"Final.Destination.5.2011.PL.BRRip.XviD-RLF\n------------------------------------------\n\n\nComplete name: rlf-final5-pl.avi\nFormat: AVI\nFormat/Info: Audio Video Interleave\nFile size: 702 MiB\nDuration: 1h 31mn\nOverall bit rate: 1 069 Kbps\nLanguage: Polish\nSubs: None\nEncoder: Ralf\n\nVideo:\n\nFormat: MPEG-4 Visual\nFormat profile: Advanced Simple@L5\nFormat settings, BVOP: 2\nFormat settings, QPel: No\nFormat settings, GMC: No warppoints\nFormat settings, Matrix: H.263\nMuxing mode: Packed bitstream\nCodec ID: XVID\nDuration: 1h 31mn\nBit rate: 931 Kbps\nWidth: 688 pixels\nHeight: 288 pixels\nDisplay aspect ratio: 2.35:1\nFrame rate: 23.976 fps\nColor space: YUV\nChroma subsampling: 4:2:0\nBit depth: 8 bits\nScan type: Progressive\nBits/(Pixel*Frame): 0.196\nStream size: 612 MiB (87%)\nWriting library: XviD 63\n\nAudio:\n\nFormat: MPEG Audio\nFormat profile: Layer 3\nCodec ID/Hint: MP3\nDuration: 1h 31mn\nBit rate mode: Constant\nBit rate: 128 Kbps\nChannel(s): 2 channels\nSampling rate: 48.0 KHz\nStream size: 84.1 MiB (12%)\nAlignment: Split accross interleaves\nInterleave, duration: 42 ms (1.00 video frame)\n\nMovie Info:\n\nNiewazne dokad uciekniesz, niewaznie gdzie sie schowasz... \nnie oszukasz smierci.W Oszukac przeznaczenie 5 smierc jest \njak zawsze wszechobecna.\n                                           &lt;a href=&quot;\nhttp://www.imdb.com/title/tt1622979/&quot; rel=&quot;nofollow&quot; target=&quot;_NEW&quot;&gt;\nhttp://www.imdb.com/title/tt1622979/&lt;/a&gt; &lt;a href=&quot;\nhttp://www.filmweb.pl/film/OszukaÃŽÂ¼+przeznaczenie+5+3D-2011-564161&quot; rel=&quot;nofollow&quot; target=&quot;_NEW&quot;&gt;\nhttp://www.filmweb.pl/film/OszukaÃŽÂ¼+przeznaczenie+5+3D-2011-564161&lt;/a&gt;\n\nScreens:\n &lt;a href=&quot;\nhttp://www.postimg.com/56000/photo-55347.jpg&quot; rel=&quot;nofollow&quot; target=&quot;_NEW&quot;&gt;\nhttp://www.postimg.com/56000/photo-55347.jpg&lt;/a&gt; &lt;a href=&quot;\nhttp://www.postimg.com/56000/photo-55348.jpg&quot; rel=&quot;nofollow&quot; target=&quot;_NEW&quot;&gt;\nhttp://www.postimg.com/56000/photo-55348.jpg&lt;/a&gt; &lt;a href=&quot;\nhttp://www.postimg.com/56000/photo-55349.jpg&quot; rel=&quot;nofollow&quot; target=&quot;_NEW&quot;&gt;\nhttp://www.postimg.com/56000/photo-55349.jpg&lt;/a&gt; &lt;a href=&quot;\nhttp://www.postimg.com/56000/photo-55350.jpg&quot; rel=&quot;nofollow&quot; target=&quot;_NEW&quot;&gt;\nhttp://www.postimg.com/56000/photo-55350.jpg&lt;/a&gt;","torrent":{"xt":"urn:btih:0338f9f1d635cd1999bdd3add7d3966cb0116001","amp;dn":"Final.Destination.5.2011.PL.BRRip.XviD-RLF","amp;tr":["udp%3A%2F%2Ftracker.openbittorrent.com%3A80","udp%3A%2F%2Fopen.demonii.com%3A1337","udp%3A%2F%2Ftracker.coppersurfer.tk%3A6969","udp%3A%2F%2Fexodus.desync.com%3A6969"],"infoHash":"0338f9f1d635cd1999bdd3add7d3966cb0116001","infoHashBuffer":{"type":"Buffer","data":[3,56,249,241,214,53,205,25,153,189,211,173,215,211,150,108,176,17,96,1]},"announce":[],"urlList":[]}}